<svg xmlns="http://www.w3.org/2000/svg" viewBox="0 0 64 64">
  <defs>
    <linearGradient id="bg" x1="10" y1="8" x2="56" y2="58" gradientUnits="userSpaceOnUse">
      <stop offset="0" stop-color="#f8fcff"/>
      <stop offset="1" stop-color="#eef7f6"/>
    </linearGradient>
    <linearGradient id="stroke" x1="16" y1="14" x2="48" y2="46" gradientUnits="userSpaceOnUse">
      <stop offset="0" stop-color="#2e7dd1"/>
      <stop offset="1" stop-color="#0d9f82"/>
    </linearGradient>
    <filter id="shadow" x="-20%" y="-20%" width="140%" height="140%">
      <feDropShadow dx="0" dy="2" stdDeviation="2.5" flood-color="#2e7dd1" flood-opacity="0.16"/>
    </filter>
  </defs>
  <rect x="6" y="6" width="52" height="52" rx="16" fill="url(#bg)"/>
  <rect x="6.75" y="6.75" width="50.5" height="50.5" rx="15.25" fill="none" stroke="#d9e7f2" stroke-width="1.5"/>
  <path d="M16 43.5H48" stroke="#d4a017" stroke-width="3.5" stroke-linecap="round" opacity="0.9"/>
  <path
    d="M17 39
       C22 34, 24 33, 28 34
       C31 34.8, 33 37, 36 36
       C40 34.5, 42 27, 47 20"
    fill="none"
    stroke="url(#stroke)"
    stroke-width="5"
    stroke-linecap="round"
    stroke-linejoin="round"
    filter="url(#shadow)"
  />
  <circle cx="47" cy="20" r="4.5" fill="#0d9f82"/>
  <circle cx="47" cy="20" r="2" fill="#ffffff" opacity="0.95"/>
  <rect x="16" y="24" width="5.5" height="15" rx="2.75" fill="#2e7dd1" opacity="0.18"/>
  <rect x="24.5" y="20.5" width="5.5" height="18.5" rx="2.75" fill="#2e7dd1" opacity="0.14"/>
  <rect x="33" y="27" width="5.5" height="12" rx="2.75" fill="#0d9f82" opacity="0.16"/>
</svg>
